<svg xmlns="http://www.w3.org/2000/svg" width="40" height="40" viewBox="0 0 40 40" fill="none">
  <g clip-path="url(#clip0_4306_8539)">
    <path d="M20.0007 0C8.9546 0 0 8.9546 0 20.0007C0 31.0467 8.9546 40 20.0007 40C31.0467 40 40 31.0454 40 20.0007C40 8.9559 31.0454 0 20.0007 0ZM27.292 26.5857V29.8861H13.0435V26.9617C13.0435 25.9773 13.2276 25.1261 13.5944 24.4055C13.9613 23.6862 14.4456 23.0595 15.0501 22.5268C15.6533 21.9955 16.3152 21.5281 17.0358 21.1247C17.7551 20.7226 18.4771 20.3427 19.2017 19.985C19.9262 19.6273 20.5907 19.2669 21.1939 18.9053C21.7984 18.5424 22.2827 18.1377 22.6496 17.6912C23.0164 17.2434 23.2005 16.716 23.2005 16.1076C23.2005 15.3295 22.9289 14.695 22.3885 14.2028C21.8467 13.7106 21.1077 13.4652 20.1678 13.4652C19.2278 13.4652 18.3661 13.7459 17.686 14.3099C17.0058 14.8739 16.5854 15.7238 16.4248 16.8596H12.6819C12.7002 15.6245 12.9874 14.5044 13.5474 13.4978C14.1062 12.4926 14.9444 11.6936 16.0632 11.1035C17.1807 10.5134 18.5855 10.2183 20.2748 10.2183C21.7239 10.2183 22.9746 10.4638 24.0256 10.956C25.0765 11.4482 25.8873 12.1322 26.4604 13.0083C27.0322 13.8856 27.3194 14.9091 27.3194 16.0815C27.3194 17.0554 27.1406 17.8961 26.7829 18.6024C26.4238 19.31 25.9499 19.9132 25.3598 20.4145C24.7697 20.9158 24.1209 21.3532 23.4146 21.7292C22.7083 22.1052 22.0033 22.4537 21.3023 22.7762C20.5999 23.0974 19.9537 23.4264 19.3636 23.7619C18.7722 24.0974 18.2982 24.4747 17.9405 24.8951C17.5828 25.3154 17.404 25.8207 17.404 26.4108V26.5857H27.292Z" fill="#002147"/>
  </g>
  <defs>
    <clipPath id="clip0_4306_8539">
      <rect width="40" height="40" fill="white"/>
    </clipPath>
  </defs>
</svg>