<svg xmlns="http://www.w3.org/2000/svg" width="40" height="40" viewBox="0 0 40 40" fill="none">
  <g clip-path="url(#clip0_4306_8541)">
    <path d="M19.9993 0C8.95329 0 0 8.95329 0 19.9993C0 31.0454 8.95329 40 19.9993 40C31.0454 40 40 31.0454 40 19.9993C40 8.95329 31.0454 0 19.9993 0ZM27.1105 26.6719C26.6902 27.3965 26.1079 28.0048 25.3664 28.497C24.6235 28.9892 23.7645 29.356 22.7906 29.5976C21.8153 29.8391 20.7735 29.9592 19.6638 29.9592C18.1076 29.9501 16.7812 29.6929 15.6859 29.1876C14.5906 28.6824 13.7498 27.9604 13.1636 27.0218C12.5774 26.0818 12.2759 24.9643 12.2589 23.6666H16.0279C16.2159 24.7671 16.6455 25.5635 17.3165 26.0557C17.9875 26.5479 18.7826 26.7933 19.7043 26.7933C20.5098 26.7933 21.2004 26.6771 21.7775 26.4447C22.3545 26.2123 22.7971 25.8873 23.1052 25.4721C23.4146 25.0556 23.5687 24.5791 23.5687 24.0426C23.5687 23.506 23.4094 23.0099 23.0921 22.6078C22.7749 22.2044 22.3336 21.8897 21.7709 21.6613C21.207 21.4328 20.5633 21.3101 19.8388 21.2918L17.9875 21.2252V18.1129L19.6508 18.0189C20.3479 17.9914 20.9563 17.8622 21.4759 17.6298C21.9942 17.3974 22.3989 17.0867 22.69 16.6977C22.9799 16.3086 23.1261 15.8674 23.1261 15.3752C23.1261 14.883 22.9786 14.49 22.6835 14.1415C22.3872 13.7929 21.9811 13.52 21.4615 13.3229C20.9432 13.1271 20.3479 13.0278 19.6782 13.0278C19.0607 13.0278 18.4928 13.131 17.9732 13.3359C17.4549 13.5422 17.0306 13.8803 16.699 14.349C16.3687 14.819 16.1755 15.447 16.1219 16.2342H12.379C12.379 14.8386 12.708 13.6806 13.3647 12.7602C14.0227 11.8385 14.9104 11.1479 16.0279 10.687C17.1468 10.2262 18.3896 9.99641 19.7578 9.99641C21.207 9.99641 22.4968 10.1831 23.6287 10.5591C24.7606 10.9351 25.6523 11.5069 26.305 12.2772C26.9578 13.0461 27.2842 14.0213 27.2842 15.2015C27.2842 16.1585 27.0074 17.0019 26.4526 17.7303C25.8977 18.4601 24.9943 19.0385 23.7423 19.468C24.4577 19.6651 25.1196 19.9641 25.728 20.3662C26.3364 20.7696 26.8246 21.284 27.1902 21.9093C27.557 22.536 27.7411 23.2867 27.7411 24.164C27.7411 25.1118 27.5309 25.9473 27.1105 26.6719Z" fill="#002147"/>
  </g>
  <defs>
    <clipPath id="clip0_4306_8541">
      <rect width="40" height="40" fill="white"/>
    </clipPath>
  </defs>
</svg>