<svg xmlns="http://www.w3.org/2000/svg" width="168" height="36" viewBox="0 0 168 36" fill="none">
  <g clip-path="url(#clip0_4303_8398)">
    <path d="M14.3205 18.0045L17.5029 21.1868L20.6853 18.0045L17.5029 14.8221L14.3205 18.0045Z" fill="#BB133E"/>
    <path d="M0.00175226 32.323L3.18414 35.5054L15.9137 22.7759L12.7313 19.5935L0.00175226 32.323Z" fill="#002147"/>
    <path d="M15.9117 13.2294L4.77352 24.3676L1.59117 21.1852L9.54704 13.2294L0 3.68235L3.18235 0.5L15.9117 13.2294Z" fill="#002147"/>
    <path d="M30.2614 21.946V0.5H35.424L41.0453 16.8879L46.7248 0.5H51.8583V21.946H48.194V5.12834L42.5436 21.946H39.5355L33.9315 5.22706V21.946H30.2672H30.2614Z" fill="#002147"/>
    <path d="M54.8258 21.946V0.5H69.007L68.9896 3.60105H58.4611V9.60569H67.7584V12.6603H58.4263V18.7985L69.2102 18.8159V21.946H54.82H54.8258Z" fill="#002147"/>
    <path d="M71.3764 21.946V0.5H80.0813C81.7248 0.5 83.0721 0.755517 84.1406 1.26655C85.2033 1.77758 85.9931 2.49187 86.5041 3.41521C87.021 4.33856 87.2765 5.4187 87.2765 6.65563C87.2765 7.80546 87.0906 8.76365 86.7132 9.54181C86.3357 10.32 85.8479 10.953 85.2498 11.4408C84.6516 11.9286 84.0128 12.3293 83.3276 12.637L87.4216 21.9518H83.6528L79.9594 13.2468H74.9768V21.9518H71.3705L71.3764 21.946ZM74.9826 10.378H79.2683C80.633 10.378 81.6957 10.0645 82.4623 9.43147C83.2288 8.79849 83.6121 7.9158 83.6121 6.7892C83.6121 5.6626 83.2579 4.82636 82.5436 4.22822C81.8293 3.63008 80.8943 3.32811 79.7271 3.32811H74.9826V10.3722V10.378Z" fill="#002147"/>
    <path d="M93.9373 21.946V3.74623H87.2648V0.5H103.995V3.74623H97.5552V21.946H93.9373Z" fill="#002147"/>
    <path d="M104.425 21.946V20.1051L115.697 3.5662H105.046V0.5H120.813V2.24797L109.408 18.8449H120.708V21.946H104.425Z" fill="#002147"/>
    <path d="M30.2614 35.2096V25.9762H31.8119V35.2096H30.2614Z" fill="#002147"/>
    <path d="M33.0895 35.2096V25.9762H34.611L39.1348 32.5732V25.9762H40.6853V35.2096H39.2858L34.6458 28.4326V35.2096H33.0953H33.0895Z" fill="#002147"/>
    <path d="M43.9838 35.2096V27.3757H41.1092V25.9762H48.3101V27.3757H45.5401V35.2096H43.9838Z" fill="#002147"/>
    <path d="M48.7457 35.2096V25.9762H54.8491V27.3118H50.3078V29.896H54.309V31.2143H50.2904V33.8566H54.9304V35.2096H48.7341H48.7457Z" fill="#002147"/>
    <path d="M55.8711 35.2096V25.9762H59.6225C60.331 25.9762 60.9117 26.0865 61.3705 26.3072C61.8293 26.5279 62.1661 26.8356 62.3868 27.2305C62.6074 27.6312 62.7178 28.0958 62.7178 28.6243C62.7178 29.1179 62.6365 29.5302 62.4739 29.867C62.3113 30.2038 62.1022 30.471 61.8467 30.6858C61.5912 30.8949 61.3124 31.0691 61.0221 31.2027L62.7875 35.2154H61.1673L59.5761 31.464H57.4332V35.2154H55.8827L55.8711 35.2096ZM57.4216 30.2271H59.2683C59.8548 30.2271 60.3136 30.0935 60.6446 29.8205C60.9756 29.5476 61.1382 29.1701 61.1382 28.6823C61.1382 28.1945 60.9872 27.8403 60.6795 27.579C60.3717 27.3235 59.971 27.1899 59.4658 27.1899H57.4216V30.2212V30.2271Z" fill="#002147"/>
    <path d="M63.6876 35.2096V25.9762H65.2091L69.7329 32.5732V25.9762H71.2834V35.2096H69.8839L65.244 28.4326V35.2096H63.6934H63.6876Z" fill="#002147"/>
    <path d="M71.8641 35.2096L75.1859 25.9762H76.8699L80.1859 35.2096H78.6295L77.8049 32.8984H74.2683L73.4379 35.2096H71.8641ZM74.6342 31.5104H77.41L76.0221 27.4802L74.6284 31.5104H74.6342Z" fill="#002147"/>
    <path d="M81.6899 35.2096V27.3757H78.8154V25.9762H86.0163V27.3757H83.2463V35.2096H81.6899Z" fill="#002147"/>
    <path d="M86.446 35.2096V25.9762H87.9966V35.2096H86.446Z" fill="#002147"/>
    <path d="M92.9501 35.3374C92.0964 35.3374 91.3647 35.1516 90.7433 34.7741C90.1219 34.3966 89.6458 33.8566 89.3089 33.1539C88.9721 32.4454 88.8037 31.5976 88.8037 30.6103C88.8037 29.6231 88.9721 28.7578 89.3147 28.0494C89.6574 27.3409 90.1394 26.795 90.7607 26.4117C91.3821 26.0343 92.1138 25.8426 92.9559 25.8426C93.7979 25.8426 94.5238 26.0343 95.1394 26.4117C95.7549 26.7892 96.2311 27.3351 96.5679 28.0494C96.9048 28.7578 97.0732 29.6115 97.0732 30.6103C97.0732 31.6092 96.9048 32.4454 96.5737 33.1481C96.2427 33.8508 95.7665 34.3908 95.151 34.7683C94.5354 35.1458 93.8037 35.3316 92.9617 35.3316L92.9501 35.3374ZM92.9501 34.0366C93.4495 34.0366 93.885 33.9204 94.2451 33.6823C94.6051 33.4442 94.8838 33.0784 95.0813 32.579C95.2729 32.0796 95.3717 31.4291 95.3717 30.6336C95.3717 29.838 95.2729 29.1643 95.0755 28.6533C94.878 28.1423 94.5993 27.7648 94.2393 27.5209C93.8792 27.277 93.4495 27.155 92.9501 27.155C92.4506 27.155 92.0151 27.277 91.6492 27.5209C91.2834 27.7648 91.0046 28.1423 90.8014 28.6591C90.6039 29.1701 90.4994 29.8322 90.4994 30.6336C90.4994 31.435 90.5981 32.0796 90.8014 32.579C90.9988 33.0784 91.2834 33.4501 91.6492 33.6823C92.0151 33.9146 92.4448 34.0366 92.9501 34.0366Z" fill="#002147"/>
    <path d="M97.8746 35.2096V25.9762H99.3961L103.92 32.5732V25.9762H105.47V35.2096H104.071L99.4309 28.4326V35.2096H97.8804H97.8746Z" fill="#002147"/>
    <path d="M106.057 35.2096L109.379 25.9762H111.063L114.379 35.2096H112.822L111.998 32.8984H108.461L107.631 35.2096H106.057ZM108.827 31.5104H111.603L110.215 27.4802L108.821 31.5104H108.827Z" fill="#002147"/>
    <path d="M114.971 35.2096V25.9762H116.551V33.8682H120.72V35.2096H114.971Z" fill="#002147"/>
    <path d="M123.415 35.2096V25.9762H124.994V33.8682H129.164V35.2096H123.415Z" fill="#002147"/>
    <path d="M129.832 35.2096V25.9762H131.382V35.2096H129.832Z" fill="#002147"/>
    <path d="M132.66 35.2096V25.9762H134.884L137.306 33.0319L139.75 25.9762H141.957V35.2096H140.378V27.9681L137.944 35.2096H136.649L134.233 28.0145V35.2096H132.654H132.66Z" fill="#002147"/>
    <path d="M143.235 35.2096V25.9762H144.785V35.2096H143.235Z" fill="#002147"/>
    <path d="M148.089 35.2096V27.3757H145.215V25.9762H152.416V27.3757H149.646V35.2096H148.089Z" fill="#002147"/>
    <path d="M152.846 35.2096V25.9762H158.949V27.3118H154.408V29.896H158.409V31.2143H154.39V33.8566H159.03V35.2096H152.834H152.846Z" fill="#002147"/>
    <path d="M159.971 35.2096V25.9762H160.976C161.231 25.9762 161.492 25.9762 161.76 25.9762C162.027 25.9762 162.259 25.9762 162.451 25.9878C163.577 26.011 164.489 26.2027 165.192 26.5685C165.894 26.9344 166.411 27.4512 166.742 28.119C167.073 28.7869 167.236 29.5999 167.236 30.5406C167.236 31.4814 167.062 32.3699 166.707 33.061C166.359 33.7578 165.819 34.2863 165.099 34.6521C164.379 35.018 163.461 35.2038 162.352 35.2038H159.965L159.971 35.2096ZM161.551 33.9262H162.387C163.02 33.9262 163.583 33.8159 164.065 33.5952C164.553 33.3746 164.93 33.0203 165.203 32.5267C165.476 32.0331 165.616 31.3711 165.616 30.5464C165.616 29.7218 165.488 29.1063 165.232 28.6243C164.977 28.1423 164.611 27.7938 164.135 27.579C163.659 27.3641 163.089 27.2538 162.422 27.2538H161.545V33.9204L161.551 33.9262Z" fill="#002147"/>
  </g>
  <defs>
    <clipPath id="clip0_4303_8398">
      <rect width="167.247" height="35" fill="white" transform="translate(0 0.5)"/>
    </clipPath>
  </defs>
</svg>