<svg xmlns="http://www.w3.org/2000/svg" width="16" height="16" viewBox="0 0 16 16" fill="none">
  <g clip-path="url(#clip0_4320_70)">
    <path d="M9.80407 8.18468C10.18 7.82696 10.5568 7.45922 10.9264 7.09786C10.403 7.01958 9.86688 6.94039 9.34077 6.86757C9.05223 6.82934 8.84105 6.67643 8.71271 6.41337C8.47878 5.93186 8.23848 5.44489 8.00364 4.97066C7.75879 5.46491 7.51758 5.95462 7.2882 6.42065C7.24087 6.51896 7.09614 6.8166 6.72022 6.8612C6.52543 6.88487 6.32518 6.91491 6.1313 6.94312L5.07999 7.09695C5.45045 7.46013 5.83002 7.83151 6.20776 8.19014C6.43805 8.40859 6.52179 8.67074 6.46444 8.99205C6.37433 9.50269 6.28513 10.0215 6.19866 10.5312C6.21413 10.5231 6.2287 10.5158 6.24326 10.5076C6.62009 10.3091 6.99693 10.1107 7.37467 9.91593C7.45295 9.87588 7.51303 9.8422 7.56218 9.81489C7.70509 9.73479 7.82979 9.66562 8.00273 9.66562C8.17567 9.66562 8.3022 9.7357 8.44783 9.81672C8.49699 9.84402 8.55888 9.87861 8.63807 9.91957C8.97941 10.0952 9.31801 10.2737 9.65753 10.4521C9.70759 10.4785 9.75765 10.5048 9.80771 10.5312C9.72033 10.0188 9.63113 9.49722 9.5392 8.98477C9.48367 8.67438 9.57288 8.40586 9.80407 8.18468ZM9.80407 8.18468C10.18 7.82696 10.5568 7.45922 10.9264 7.09786C10.403 7.01958 9.86688 6.94039 9.34077 6.86757C9.05223 6.82934 8.84105 6.67643 8.71271 6.41337C8.47878 5.93186 8.23848 5.44489 8.00364 4.97066C7.75879 5.46491 7.51758 5.95462 7.2882 6.42065C7.24087 6.51896 7.09614 6.8166 6.72022 6.8612C6.52543 6.88487 6.32518 6.91491 6.1313 6.94312L5.07999 7.09695C5.45045 7.46013 5.83002 7.83151 6.20776 8.19014C6.43805 8.40859 6.52179 8.67074 6.46444 8.99205C6.37433 9.50269 6.28513 10.0215 6.19866 10.5312C6.21413 10.5231 6.2287 10.5158 6.24326 10.5076C6.62009 10.3091 6.99693 10.1107 7.37467 9.91593C7.45295 9.87588 7.51303 9.8422 7.56218 9.81489C7.70509 9.73479 7.82979 9.66562 8.00273 9.66562C8.17567 9.66562 8.3022 9.7357 8.44783 9.81672C8.49699 9.84402 8.55888 9.87861 8.63807 9.91957C8.97941 10.0952 9.31801 10.2737 9.65753 10.4521C9.70759 10.4785 9.75765 10.5048 9.80771 10.5312C9.72033 10.0188 9.63113 9.49722 9.5392 8.98477C9.48367 8.67438 9.57288 8.40586 9.80407 8.18468ZM8.31221 0.00809131C4.03504 -0.193979 0.0709988 3.1948 9.96981e-07 7.90979C-0.0628048 12.1596 3.30868 15.9344 7.92354 15.999C12.1971 16.0582 15.9399 12.6612 16.0036 8.08455C16.0655 3.69088 12.5557 0.142805 8.31221 0.00809131ZM14.1158 6.16943C13.1801 7.0833 12.2462 7.99808 11.3041 8.90558C11.1831 9.02209 11.1494 9.13313 11.1776 9.29424C11.4015 10.5631 11.6182 11.8329 11.8375 13.1026C11.8403 13.1199 11.8466 13.1372 11.8457 13.1554C11.843 13.2119 11.8876 13.2838 11.833 13.322C11.7784 13.3611 11.7219 13.3029 11.6719 13.2765C10.5095 12.6666 9.34623 12.0577 8.18569 11.4415C8.05735 11.3732 7.95904 11.3677 7.82706 11.4378C6.66743 12.0541 5.50415 12.663 4.34088 13.2729C4.28991 13.2993 4.24076 13.3493 4.17886 13.3266C4.12698 13.3065 4.15793 13.2546 4.15337 13.2064C4.24167 12.6912 4.33087 12.1669 4.42098 11.6426C4.55661 10.8507 4.69041 10.0579 4.83149 9.26694C4.85698 9.12403 4.82603 9.02664 4.71954 8.92378C3.77927 8.01537 2.84447 7.10059 1.90875 6.18763C1.86324 6.14303 1.78041 6.10298 1.79861 6.03836C1.82046 5.96372 1.91603 5.97646 1.98248 5.96645C3.2923 5.7753 4.60212 5.58324 5.91194 5.39847C6.04938 5.37844 6.10035 5.29743 6.15133 5.19366C6.71658 4.04769 7.28274 2.90262 7.8489 1.75664C7.8571 1.74117 7.86347 1.72387 7.87257 1.70931C7.91353 1.6465 7.9199 1.53272 7.99909 1.53272C8.09102 1.53272 8.10195 1.64832 8.13653 1.71841C8.70452 2.86348 9.2725 4.00855 9.8332 5.15634C9.90784 5.30835 9.99613 5.38572 10.1736 5.4103C11.4498 5.58688 12.7241 5.77712 13.9984 5.96281C14.0166 5.96554 14.0348 5.96463 14.0512 5.97009C14.1067 5.98556 14.1868 5.97191 14.2078 6.03016C14.2305 6.09388 14.1559 6.13029 14.1158 6.16943ZM10.9264 7.09786C10.403 7.01958 9.86688 6.94039 9.34077 6.86757C9.05223 6.82934 8.84105 6.67643 8.71271 6.41337C8.47878 5.93186 8.23848 5.44489 8.00364 4.97066C7.75879 5.46491 7.51758 5.95462 7.2882 6.42065C7.24087 6.51896 7.09614 6.8166 6.72022 6.8612C6.52543 6.88487 6.32518 6.91491 6.1313 6.94312L5.07999 7.09695C5.45045 7.46013 5.83002 7.83151 6.20776 8.19014C6.43805 8.40859 6.52179 8.67074 6.46444 8.99205C6.37433 9.50269 6.28513 10.0215 6.19866 10.5312C6.21413 10.5231 6.2287 10.5158 6.24326 10.5076C6.62009 10.3091 6.99693 10.1107 7.37467 9.91593C7.45295 9.87588 7.51303 9.8422 7.56218 9.81489C7.70509 9.73479 7.82979 9.66562 8.00273 9.66562C8.17567 9.66562 8.3022 9.7357 8.44783 9.81672C8.49699 9.84402 8.55888 9.87861 8.63807 9.91957C8.97941 10.0952 9.31801 10.2737 9.65753 10.4521C9.70759 10.4785 9.75765 10.5048 9.80771 10.5312C9.72033 10.0188 9.63113 9.49722 9.5392 8.98477C9.48367 8.67438 9.57288 8.40586 9.80407 8.18468C10.18 7.82696 10.5568 7.45922 10.9264 7.09786Z" fill="white"/>
    <path d="M8.31221 0.00809131C4.03504 -0.193979 0.0709988 3.1948 9.96981e-07 7.90979C-0.0628048 12.1596 3.30868 15.9344 7.92354 15.999C12.1971 16.0582 15.9399 12.6612 16.0036 8.08455C16.0655 3.69088 12.5557 0.142805 8.31221 0.00809131ZM14.1158 6.16943C13.1801 7.0833 12.2462 7.99808 11.3041 8.90558C11.1831 9.02209 11.1494 9.13313 11.1776 9.29424C11.4015 10.5631 11.6182 11.8329 11.8375 13.1026C11.8403 13.1199 11.8466 13.1372 11.8457 13.1554C11.843 13.2119 11.8876 13.2838 11.833 13.322C11.7784 13.3611 11.7219 13.3029 11.6719 13.2765C10.5095 12.6666 9.34623 12.0577 8.18569 11.4415C8.05735 11.3732 7.95904 11.3677 7.82706 11.4378C6.66743 12.0541 5.50415 12.663 4.34088 13.2729C4.28991 13.2993 4.24076 13.3493 4.17886 13.3266C4.12698 13.3065 4.15793 13.2546 4.15337 13.2064C4.24167 12.6912 4.33087 12.1669 4.42098 11.6426C4.55661 10.8507 4.69041 10.0579 4.83149 9.26694C4.85698 9.12403 4.82603 9.02664 4.71954 8.92378C3.77927 8.01537 2.84447 7.10059 1.90875 6.18763C1.86324 6.14303 1.78041 6.10298 1.79861 6.03836C1.82046 5.96372 1.91603 5.97646 1.98248 5.96645C3.2923 5.7753 4.60212 5.58324 5.91194 5.39847C6.04938 5.37844 6.10035 5.29743 6.15133 5.19366C6.71658 4.04769 7.28274 2.90262 7.8489 1.75664C7.8571 1.74117 7.86347 1.72387 7.87257 1.70931C7.91353 1.6465 7.9199 1.53272 7.99909 1.53272C8.09102 1.53272 8.10195 1.64832 8.13653 1.71841C8.70452 2.86348 9.2725 4.00855 9.8332 5.15634C9.90784 5.30835 9.99613 5.38572 10.1736 5.4103C11.4498 5.58688 12.7241 5.77712 13.9984 5.96281C14.0166 5.96554 14.0348 5.96463 14.0512 5.97009C14.1067 5.98556 14.1868 5.97191 14.2078 6.03016C14.2305 6.09388 14.1559 6.13029 14.1158 6.16943Z" fill="white"/>
    <path d="M9.5392 8.98481C9.63113 9.49727 9.72033 10.0188 9.80771 10.5313C9.75765 10.5049 9.70759 10.4785 9.65753 10.4521C9.31801 10.2737 8.97941 10.0953 8.63807 9.91962C8.55888 9.87866 8.49698 9.84407 8.44783 9.81676C8.3022 9.73575 8.17658 9.66566 8.00273 9.66566C7.82888 9.66566 7.70509 9.73484 7.56218 9.81494C7.51303 9.84225 7.45295 9.87593 7.37467 9.91598C6.99693 10.1108 6.62009 10.3092 6.24326 10.5076C6.22869 10.5158 6.21413 10.5231 6.19866 10.5313C6.28513 10.0216 6.37433 9.50273 6.46444 8.99209C6.52179 8.67078 6.43805 8.40864 6.20776 8.19018C5.83001 7.83155 5.45045 7.46018 5.07999 7.097L6.1313 6.94317C6.32518 6.91495 6.52543 6.88491 6.72022 6.86125C7.09614 6.81665 7.24087 6.519 7.2882 6.4207C7.51758 5.95466 7.75879 5.46496 8.00364 4.9707C8.23848 5.44493 8.47878 5.9319 8.71271 6.41342C8.84105 6.67647 9.05222 6.82939 9.34077 6.86762C9.86688 6.94044 10.403 7.01963 10.9264 7.09791C10.5568 7.45927 10.18 7.827 9.80407 8.18472C9.57288 8.40591 9.48367 8.67442 9.5392 8.98481Z" fill="white"/>
    <path d="M9.5392 8.98481C9.63113 9.49727 9.72033 10.0188 9.80771 10.5313C9.75765 10.5049 9.70759 10.4785 9.65753 10.4521C9.31801 10.2737 8.97941 10.0953 8.63807 9.91962C8.55888 9.87866 8.49698 9.84407 8.44783 9.81676C8.3022 9.73575 8.17658 9.66566 8.00273 9.66566C7.82888 9.66566 7.70509 9.73484 7.56218 9.81494C7.51303 9.84225 7.45295 9.87593 7.37467 9.91598C6.99693 10.1108 6.62009 10.3092 6.24326 10.5076C6.22869 10.5158 6.21413 10.5231 6.19866 10.5313C6.28513 10.0216 6.37433 9.50273 6.46444 8.99209C6.52179 8.67078 6.43805 8.40864 6.20776 8.19018C5.83001 7.83155 5.45045 7.46018 5.07999 7.097L6.1313 6.94317C6.32518 6.91495 6.52543 6.88491 6.72022 6.86125C7.09614 6.81665 7.24087 6.519 7.2882 6.4207C7.51758 5.95466 7.75879 5.46496 8.00364 4.9707C8.23848 5.44493 8.47878 5.9319 8.71271 6.41342C8.84105 6.67647 9.05222 6.82939 9.34077 6.86762C9.86688 6.94044 10.403 7.01963 10.9264 7.09791C10.5568 7.45927 10.18 7.827 9.80407 8.18472C9.57288 8.40591 9.48367 8.67442 9.5392 8.98481Z" fill="white"/>
  </g>
  <defs>
    <clipPath id="clip0_4320_70">
      <rect width="16.0055" height="16" fill="white"/>
    </clipPath>
  </defs>
</svg>