<svg xmlns="http://www.w3.org/2000/svg" width="62" height="60" viewBox="0 0 62 60" fill="none">
  <g clip-path="url(#clip0_4306_8546)">
    <path d="M61.1833 30.1833C61.1833 45.2526 50.1474 57.7374 35.7175 60V38.9119H42.7469L44.0884 30.1833H35.7175V24.5223C35.7175 22.1344 36.8846 19.8092 40.6363 19.8092H44.4416V12.3819C44.4416 12.3819 40.9851 11.7916 37.685 11.7916C30.7898 11.7916 26.2824 15.9726 26.2824 23.5341V30.1833H18.6181V38.9119H26.2824V60C11.8526 57.7374 0.81665 45.2526 0.81665 30.1833C0.81665 13.5177 14.3298 0 31 0C47.6701 0 61.1833 13.5177 61.1833 30.1833Z" fill="#808285"/>
  </g>
  <defs>
    <clipPath id="clip0_4306_8546">
      <rect width="60.3667" height="60" fill="white" transform="translate(0.81665)"/>
    </clipPath>
  </defs>
</svg>