<svg xmlns="http://www.w3.org/2000/svg" width="61" height="60" viewBox="0 0 61 60" fill="none">
  <g clip-path="url(#clip0_4306_8548)">
    <path d="M30.1833 0C13.6144 0 0.183327 13.4311 0.183327 30C0.183327 46.5689 13.6144 60 30.1833 60C46.7522 60 60.1833 46.5644 60.1833 30C60.1833 13.4356 46.7522 0 30.1833 0ZM20.8055 34.5822C20.8055 38.3378 20.8055 42.0933 20.8144 45.8533C20.8189 46.2667 20.7122 46.3956 20.2811 46.3911C18.1478 46.3689 16.0144 46.3733 13.8767 46.3867C13.5344 46.3911 13.4322 46.3022 13.4322 45.9511C13.4455 38.3467 13.4455 30.7378 13.4367 23.1333C13.4367 22.8178 13.5122 22.7067 13.8455 22.7111C16.01 22.7244 18.1744 22.7289 20.3433 22.7111C20.7567 22.7067 20.8144 22.8667 20.8144 23.2267C20.8011 27.0133 20.8055 30.8 20.8055 34.5867V34.5822ZM17.13 19.4533C14.8055 19.4533 12.8767 17.5333 12.8678 15.2089C12.8633 12.8622 14.7922 10.9289 17.1389 10.9333C19.4722 10.9333 21.3922 12.8489 21.3967 15.1733C21.3967 17.5333 19.4811 19.4533 17.13 19.4533ZM48.4189 45.9022C48.4233 46.2889 48.3122 46.3911 47.93 46.3867C45.7967 46.3689 43.6589 46.3689 41.5255 46.3867C41.1478 46.3911 41.0678 46.2756 41.0678 45.92C41.0811 41.9778 41.0855 38.0356 41.0722 34.0889C41.0678 33.1022 41.0056 32.1156 40.73 31.1556C40.2189 29.3822 38.9522 28.4844 37.0989 28.5822C34.5655 28.7156 33.25 29.9689 32.9255 32.5422C32.85 33.1556 32.8144 33.7733 32.8144 34.3911C32.8144 38.2267 32.8144 42.0622 32.8233 45.8978C32.8233 46.28 32.73 46.3911 32.3389 46.3867C30.1878 46.3689 28.0367 46.3733 25.8855 46.3867C25.5433 46.3911 25.4411 46.2978 25.4411 45.9467C25.45 38.3556 25.4544 30.7644 25.4411 23.1689C25.4411 22.7956 25.5655 22.7067 25.9211 22.7111C27.9611 22.7244 30.0056 22.7244 32.0455 22.7111C32.4233 22.7111 32.5211 22.8311 32.5122 23.1867C32.49 24.0933 32.5033 25 32.5033 25.9111C32.9967 25.3556 33.4011 24.7956 33.9078 24.3156C35.4633 22.8489 37.3033 22.1111 39.4544 22.1289C40.6322 22.1378 41.8011 22.2222 42.9389 22.5556C45.5433 23.3067 47.0589 25.0978 47.7789 27.6444C48.3211 29.5511 48.4189 31.5067 48.4233 33.4756C48.4322 37.6178 48.41 41.76 48.4189 45.9067V45.9022Z" fill="#808285"/>
  </g>
  <defs>
    <clipPath id="clip0_4306_8548">
      <rect width="60" height="60" fill="white" transform="translate(0.183327)"/>
    </clipPath>
  </defs>
</svg>