<svg xmlns="http://www.w3.org/2000/svg" width="41" height="40" viewBox="0 0 41 40" fill="none">
<g clip-path="url(#clip0_4304_8500)">
<path d="M40.6667 39.88C40.5167 39.844 40.3607 39.82 40.2147 39.77C38.2127 39.108 36.2127 38.446 34.2147 37.77C33.9287 37.674 33.7107 37.704 33.4487 37.85C29.2947 40.156 24.9967 40.432 20.6607 38.504C16.3367 36.582 13.6587 33.222 12.5847 28.608C12.4967 28.228 12.3387 28.032 11.9447 27.956C10.5147 27.68 9.17069 27.156 7.91869 26.412C7.62269 26.236 7.35869 26.23 7.03469 26.34C5.05069 27.016 3.06269 27.672 1.07269 28.332C0.956691 28.37 0.814691 28.486 0.708691 28.378C0.602691 28.272 0.718691 28.134 0.756691 28.018C1.42269 26.004 2.09069 23.992 2.76869 21.982C2.85869 21.716 2.85669 21.504 2.70869 21.252C1.30869 18.848 0.662691 16.252 0.810691 13.476C0.986691 10.178 2.16069 7.27796 4.34869 4.78996C6.02069 2.88996 8.06269 1.53996 10.4567 0.735956C12.5467 0.0339564 14.6907 -0.172044 16.8847 0.143956C20.4547 0.657956 23.4007 2.30396 25.7367 5.02996C27.2547 6.79996 28.2727 8.83596 28.7387 11.128C28.8207 11.536 29.0087 11.702 29.4087 11.792C33.3167 12.666 36.3367 14.83 38.4507 18.212C40.0347 20.746 40.6967 23.55 40.5127 26.528C40.3767 28.716 39.7527 30.772 38.6387 32.67C38.5247 32.864 38.4287 33.04 38.5107 33.288C39.2007 35.334 39.8807 37.386 40.5667 39.434C40.5907 39.508 40.6327 39.576 40.6647 39.646V39.88H40.6667ZM4.62069 24.452C4.80869 24.398 4.93069 24.366 5.04869 24.326C5.80269 24.078 6.56269 23.848 7.30669 23.568C7.69869 23.42 7.99269 23.452 8.34869 23.696C10.2747 25.02 12.4087 25.71 14.7587 25.738C17.6247 25.772 20.1747 24.896 22.3567 23.056C26.5687 19.5 27.7747 13.832 25.2687 8.91196C23.2967 5.03996 20.0247 2.90796 15.6987 2.57996C12.3087 2.32396 9.35269 3.46396 6.87669 5.81396C3.02669 9.46596 2.17869 15.576 4.99269 20.068C5.54669 20.952 5.68469 21.676 5.24869 22.596C4.98069 23.164 4.83869 23.792 4.62269 24.452H4.62069ZM37.9967 25.376C38.0127 24.972 37.9587 24.362 37.8447 23.76C36.9367 19 34.1667 15.892 29.5507 14.432C29.1207 14.296 29.0487 14.35 29.0547 14.822C29.0627 15.452 28.9647 16.068 28.8507 16.68C28.2667 19.772 26.8327 22.404 24.5127 24.532C21.9807 26.854 18.9967 28.112 15.5567 28.262C15.1307 28.28 15.1047 28.306 15.2167 28.726C15.6787 30.44 16.4987 31.97 17.6827 33.286C19.8887 35.74 22.6587 37.048 25.9547 37.192C28.5807 37.306 30.9647 36.556 33.1207 35.066C33.3587 34.902 33.5647 34.862 33.8427 34.96C34.6647 35.252 35.4947 35.52 36.3227 35.79C36.4147 35.82 36.5207 35.908 36.6127 35.81C36.7007 35.716 36.6147 35.61 36.5847 35.518C36.3207 34.714 36.0667 33.908 35.7787 33.112C35.6647 32.798 35.6927 32.562 35.8847 32.284C37.2767 30.27 38.0027 28.04 37.9987 25.372L37.9967 25.376Z" fill="white"/>
</g>
<defs>
<clipPath id="clip0_4304_8500">
<rect width="40" height="39.88" fill="white" transform="translate(0.666687)"/>
</clipPath>
</defs>
</svg>