<svg xmlns="http://www.w3.org/2000/svg" width="40" height="40" viewBox="0 0 40 40" fill="none">
  <g clip-path="url(#clip0_4306_8526)">
    <path d="M0.00801526 35.128C0.00801526 23.538 0.00801526 11.948 1.52588e-05 0.358C1.52588e-05 0.066 0.0660152 0 0.358015 0C11.22 0.008 22.082 0.008 32.942 0.008C32.95 0.228 32.964 0.45 32.964 0.67C32.964 10.192 32.964 19.712 32.964 29.234C32.964 29.798 32.968 29.802 33.53 29.802C35.508 29.802 37.484 29.802 39.462 29.802C39.982 29.802 39.996 29.816 39.996 30.32C39.996 31.79 40.002 33.26 39.996 34.73C39.98 37.558 37.558 39.992 34.728 39.994C24.96 40.002 15.192 40.004 5.42402 39.992C3.32602 39.99 1.78602 38.994 0.768015 37.17C0.410015 36.528 0.210015 35.828 0.00801526 35.128ZM2.38002 18.518C2.38002 23.656 2.38202 28.794 2.37602 33.93C2.37602 34.474 2.48002 34.988 2.66802 35.49C3.34002 37.272 4.77001 37.844 6.48401 37.468C7.79401 37.18 8.78401 35.818 8.79401 34.344C8.80402 33.018 8.79401 31.69 8.79801 30.364C8.79801 29.808 8.80202 29.806 9.36602 29.802C9.48402 29.802 9.60001 29.802 9.71801 29.802C16.442 29.802 23.166 29.802 29.892 29.802C30.51 29.802 30.512 29.802 30.512 29.206C30.512 20.452 30.512 11.7 30.512 2.946C30.512 2.386 30.506 2.38 29.944 2.38C20.944 2.38 11.942 2.38 2.94202 2.38C2.57002 2.38 2.38335 2.57 2.38201 2.95C2.38201 8.14 2.38201 13.33 2.38201 18.518H2.38002ZM24.402 32.258C20.176 32.258 15.95 32.258 11.724 32.258C11.216 32.258 11.202 32.276 11.2 32.788C11.2 33.322 11.188 33.854 11.2 34.388C11.224 35.408 10.902 36.332 10.426 37.212C10.28 37.48 10.282 37.626 10.64 37.598C10.744 37.59 10.848 37.598 10.952 37.598C16.18 37.598 21.406 37.598 26.634 37.598C29.208 37.598 31.784 37.604 34.358 37.596C36.3 37.59 37.58 36.3 37.594 34.358C37.598 33.902 37.594 33.448 37.594 32.992C37.594 32.5053 37.356 32.2613 36.88 32.26C32.72 32.26 28.558 32.26 24.398 32.26L24.402 32.258Z" fill="white"/>
    <path d="M20.214 8.79799C22.332 8.79799 24.452 8.79799 26.57 8.79799C27.122 8.79799 27.122 8.79999 27.124 9.36599C27.124 9.85999 27.114 10.354 27.128 10.848C27.134 11.11 27.036 11.238 26.772 11.234C26.642 11.234 26.512 11.24 26.382 11.24C22.248 11.24 18.114 11.24 13.98 11.24C13.85 11.24 13.72 11.234 13.59 11.234C13.35 11.234 13.242 11.126 13.246 10.874C13.256 10.328 13.264 9.78199 13.242 9.23599C13.228 8.88599 13.37 8.79199 13.7 8.79199C15.87 8.80199 18.042 8.79799 20.212 8.79799H20.214Z" fill="white"/>
    <path d="M20.172 17.824C18.052 17.824 15.932 17.824 13.812 17.824C13.254 17.824 13.248 17.816 13.246 17.256C13.246 16.788 13.266 16.318 13.24 15.852C13.218 15.466 13.382 15.34 13.744 15.364C13.99 15.382 14.238 15.366 14.486 15.366C18.478 15.366 22.47 15.366 26.464 15.366C27.124 15.366 27.126 15.366 27.126 16.034C27.126 16.464 27.102 16.894 27.132 17.32C27.16 17.726 26.99 17.83 26.61 17.826C24.594 17.814 22.578 17.82 20.562 17.82C20.432 17.82 20.302 17.82 20.172 17.82V17.824Z" fill="white"/>
    <path d="M20.222 21.9861C22.354 21.9861 24.486 21.9941 26.618 21.9781C27.004 21.9761 27.156 22.0781 27.132 22.4801C27.1 22.9861 27.114 23.4941 27.128 24.0001C27.136 24.2821 27.032 24.3941 26.744 24.3901C26.042 24.3781 25.34 24.3861 24.638 24.3861C21.024 24.3861 17.41 24.3861 13.798 24.3861C13.254 24.3861 13.252 24.3841 13.25 23.8521C13.25 23.3841 13.266 22.9161 13.244 22.4481C13.228 22.0941 13.354 21.9761 13.712 21.9781C15.882 21.9921 18.054 21.9841 20.224 21.9841L20.222 21.9861Z" fill="white"/>
    <path d="M11.594 8.83998C11.582 8.95598 11.488 9.01398 11.412 9.07998C10.218 10.1 9.02002 11.116 7.83002 12.142C7.61402 12.328 7.47202 12.32 7.29002 12.096C6.65802 11.322 6.01602 10.556 5.36602 9.79598C5.17402 9.57398 5.15802 9.41998 5.40802 9.22598C5.84802 8.88398 6.27402 8.51998 6.69202 8.15198C6.89002 7.97798 7.04202 7.96398 7.20402 8.18998C7.31802 8.34798 7.46402 8.48198 7.57402 8.63998C7.75402 8.89998 7.91802 8.87598 8.14202 8.67798C8.69402 8.18598 9.27002 7.71998 9.82602 7.23198C10.024 7.05798 10.164 7.05198 10.338 7.26798C10.698 7.71198 11.078 8.13798 11.448 8.57398C11.514 8.65198 11.592 8.72598 11.598 8.83998H11.594Z" fill="white"/>
    <path d="M11.596 23.382C11.588 23.526 11.494 23.584 11.418 23.65C10.214 24.68 9.00602 25.704 7.80802 26.738C7.59602 26.922 7.46801 26.88 7.30201 26.678C6.66001 25.896 6.01002 25.118 5.35002 24.352C5.16202 24.132 5.17602 23.99 5.40002 23.812C5.84802 23.458 6.28402 23.088 6.71602 22.714C6.90602 22.55 7.03202 22.57 7.20002 22.756C7.86202 23.496 7.86801 23.492 8.63801 22.832C9.04201 22.486 9.44801 22.142 9.85202 21.796C9.99201 21.676 10.124 21.596 10.28 21.782C10.688 22.27 11.104 22.752 11.514 23.238C11.554 23.286 11.578 23.346 11.6 23.384L11.596 23.382Z" fill="white"/>
    <path d="M6.94402 15.282C7.12202 15.342 7.20202 15.484 7.30002 15.6C7.65602 16.02 8.04202 16.0506 8.45802 15.692C8.90202 15.312 9.35602 14.944 9.79002 14.554C10.008 14.358 10.166 14.34 10.362 14.586C10.71 15.022 11.076 15.444 11.446 15.862C11.62 16.058 11.624 16.2 11.414 16.376C10.204 17.398 8.99802 18.424 7.79602 19.456C7.60002 19.624 7.47002 19.598 7.31402 19.41C6.65202 18.61 5.98402 17.816 5.31602 17.02C5.20802 16.89 5.12402 16.764 5.29602 16.622C5.79402 16.204 6.29002 15.786 6.78802 15.37C6.83602 15.33 6.89802 15.308 6.94402 15.284V15.282Z" fill="white"/>
  </g>
  <defs>
    <clipPath id="clip0_4306_8526">
      <rect width="40" height="40" fill="white"/>
    </clipPath>
  </defs>
</svg>