<svg xmlns="http://www.w3.org/2000/svg" width="37" height="40" viewBox="0 0 37 40" fill="none">
  <g clip-path="url(#clip0_4305_8511)">
    <path d="M18.4154 0C19.9134 1.684 21.4134 3.366 22.9034 5.056C23.0914 5.27 23.2974 5.322 23.5614 5.286C25.4414 5.016 27.3234 4.752 29.2034 4.482C29.6554 4.416 29.6814 4.434 29.7674 4.928C30.0994 6.826 30.4394 8.72 30.7614 10.62C30.8034 10.868 30.9114 11.004 31.1294 11.118C32.8474 12.02 34.5554 12.942 36.2794 13.834C36.6274 14.014 36.6354 14.178 36.4754 14.496C35.6194 16.208 34.7874 17.934 33.9354 19.648C33.8074 19.906 33.7994 20.112 33.9314 20.376C34.7914 22.102 35.6294 23.838 36.4894 25.562C36.6454 25.874 36.6114 26.024 36.2874 26.192C34.5774 27.08 32.8814 27.998 31.1714 28.89C30.9114 29.026 30.7894 29.196 30.7414 29.478C30.4254 31.338 30.0954 33.196 29.7754 35.056C29.6794 35.612 29.6854 35.612 29.1394 35.534C27.2974 35.272 25.4554 35.018 23.6134 34.748C23.2794 34.698 23.0534 34.8 22.8314 35.052C21.4534 36.616 20.0614 38.168 18.6774 39.724C18.3454 40.098 18.3354 40.098 18.0034 39.724C16.6174 38.166 15.2254 36.616 13.8494 35.05C13.6134 34.782 13.3734 34.704 13.0294 34.754C11.1374 35.036 9.24338 35.294 7.35138 35.574C7.03338 35.622 6.96938 35.446 6.92738 35.208C6.65938 33.67 6.38938 32.132 6.12138 30.594C6.10538 30.504 6.07338 30.414 6.07538 30.326C6.10938 29.326 5.53938 28.834 4.68738 28.432C3.21738 27.736 1.80538 26.92 0.359382 26.17C0.0713817 26.022 0.0313818 25.882 0.173382 25.596C1.03938 23.858 1.88138 22.11 2.74738 20.374C2.87738 20.112 2.87138 19.906 2.74338 19.648C1.88938 17.934 1.05938 16.208 0.203382 14.496C0.0433818 14.176 0.0553817 14.014 0.401382 13.834C2.12538 12.942 3.83338 12.02 5.55138 11.118C5.76938 11.004 5.87338 10.866 5.91538 10.618C6.23538 8.732 6.57538 6.85 6.90338 4.966C6.99738 4.42 6.98938 4.42 7.54938 4.5C9.40338 4.762 11.2594 5.022 13.1134 5.288C13.3774 5.326 13.5834 5.274 13.7714 5.06C15.2614 3.366 16.7614 1.684 18.2574 0C18.3094 0 18.3614 0 18.4134 0H18.4154ZM27.4434 32.836C27.7034 32.93 27.7194 32.686 27.7554 32.482C28.0234 30.956 28.2974 29.432 28.5474 27.904C28.5974 27.598 28.7354 27.426 29.0014 27.286C30.3534 26.582 31.6934 25.856 33.0454 25.154C33.3474 24.998 33.4354 24.854 33.2674 24.522C32.5894 23.172 31.9454 21.804 31.2674 20.454C31.1134 20.146 31.0994 19.9 31.2594 19.584C31.9434 18.222 32.5894 16.842 33.2734 15.48C33.4294 15.168 33.3654 15.034 33.0694 14.882C31.6934 14.17 30.3294 13.432 28.9554 12.714C28.7094 12.586 28.5954 12.418 28.5494 12.148C28.2954 10.62 28.0194 9.096 27.7614 7.57C27.7134 7.286 27.6394 7.15 27.2934 7.202C25.7254 7.442 24.1494 7.64 22.5794 7.874C22.3114 7.914 22.1394 7.856 21.9654 7.66C20.8434 6.392 19.7074 5.136 18.5894 3.862C18.3914 3.638 18.2894 3.622 18.0834 3.856C16.9674 5.13 15.8314 6.386 14.7094 7.654C14.5374 7.848 14.3674 7.916 14.0974 7.876C12.5274 7.64 10.9534 7.44 9.38338 7.2C9.04538 7.148 8.95738 7.266 8.90938 7.558C8.65138 9.086 8.37538 10.608 8.12138 12.136C8.07338 12.424 7.94738 12.596 7.69138 12.728C6.31738 13.444 4.95338 14.182 3.57738 14.896C3.28938 15.044 3.25138 15.182 3.39338 15.468C4.08538 16.856 4.74938 18.256 5.43938 19.644C5.56738 19.904 5.57138 20.112 5.44138 20.374C4.75738 21.75 4.10138 23.14 3.41138 24.514C3.24938 24.838 3.30538 24.986 3.61738 25.148C4.98338 25.854 6.33338 26.588 7.69738 27.298C7.95538 27.432 8.07538 27.608 8.12338 27.894C8.37738 29.422 8.65538 30.946 8.91138 32.472C8.96138 32.774 9.06938 32.874 9.39138 32.824C10.9474 32.588 12.5094 32.384 14.0654 32.15C14.3454 32.108 14.5294 32.166 14.7154 32.376C15.8354 33.646 16.9734 34.902 18.0894 36.176C18.2994 36.416 18.4014 36.38 18.5934 36.162C19.5994 35.018 20.6614 33.918 21.6194 32.736C22.0714 32.18 22.5214 32.112 23.1634 32.222C24.5614 32.46 25.9694 32.63 27.4394 32.836H27.4434Z" fill="white"/>
    <path d="M24.6614 15.2899C24.6374 15.4679 24.5094 15.5479 24.4114 15.6479C22.2854 17.7759 20.1574 19.9039 18.0314 22.0299C16.6774 23.3839 15.3194 24.7319 13.9754 26.0959C13.7294 26.3459 13.5674 26.3799 13.3214 26.1039C12.9754 25.7159 12.6014 25.3499 12.2174 24.9979C11.9714 24.7739 12.0014 24.6239 12.2254 24.4019C14.3694 22.2719 16.5014 20.1339 18.6394 17.9979C19.9934 16.6439 21.3514 15.2959 22.6954 13.9319C22.9434 13.6819 23.1034 13.6519 23.3494 13.9239C23.7154 14.3299 24.1174 14.7019 24.5034 15.0899C24.5654 15.1539 24.6154 15.2299 24.6634 15.2899H24.6614Z" fill="white"/>
    <path d="M10.1014 15.292C10.1054 13.318 11.6774 11.774 13.6754 11.778C15.6494 11.782 17.1954 13.352 17.1914 15.348C17.1874 17.316 15.6094 18.87 13.6194 18.866C11.6534 18.862 10.0994 17.282 10.1034 15.292H10.1014ZM13.6394 14.184C13.0534 14.19 12.5134 14.728 12.5074 15.314C12.5014 15.91 13.0734 16.47 13.6694 16.45C14.2614 16.43 14.7954 15.878 14.7814 15.302C14.7674 14.714 14.2214 14.18 13.6374 14.184H13.6394Z" fill="white"/>
    <path d="M19.4834 24.668C19.4894 22.698 21.0614 21.156 23.0634 21.16C25.0354 21.166 26.5794 22.738 26.5734 24.736C26.5674 26.704 24.9874 28.254 22.9954 28.248C21.0314 28.242 19.4794 26.66 19.4854 24.666L19.4834 24.668ZM24.1654 24.708C24.1714 24.128 23.6354 23.58 23.0454 23.566C22.4514 23.552 21.8834 24.114 21.8894 24.712C21.8954 25.298 22.4394 25.834 23.0274 25.834C23.6154 25.834 24.1594 25.296 24.1634 24.71L24.1654 24.708Z" fill="white"/>
  </g>
  <defs>
    <clipPath id="clip0_4305_8511">
      <rect width="36.484" height="40" fill="white" transform="translate(0.0913696)"/>
    </clipPath>
  </defs>
</svg>