<svg xmlns="http://www.w3.org/2000/svg" width="61" height="60" viewBox="0 0 61 60" fill="none">
  <g clip-path="url(#clip0_4306_8550)">
    <path d="M30.1833 0C13.6144 0 0.183319 13.4311 0.183319 30C0.183319 46.5689 13.6144 60 30.1833 60C46.7522 60 60.1833 46.5689 60.1833 30C60.1833 13.4311 46.7522 0 30.1833 0ZM31.1522 48.4222H31.1433C27.9567 48.4222 24.8278 47.6222 22.05 46.1067L11.9611 48.7511L14.6589 38.8933C12.9967 36.0089 12.1167 32.7378 12.1211 29.3822C12.1255 18.8933 20.6633 10.36 31.1522 10.36C36.2411 10.36 41.0189 12.3422 44.6144 15.9378C48.2055 19.5333 50.1833 24.3156 50.1833 29.3956C50.1789 39.8889 41.6411 48.4222 31.1522 48.4222ZM31.1567 13.5733C22.4322 13.5733 15.3389 20.6667 15.3344 29.3822C15.33 32.3733 16.17 35.28 17.7522 37.8L18.13 38.3956L16.53 44.2311L22.5167 42.6622L23.0944 43.0044C25.5211 44.4444 28.3078 45.2089 31.1433 45.2089H31.1522C39.8722 45.2089 46.9655 38.1156 46.97 29.3956C46.97 25.1733 45.3255 21.2 42.3389 18.2089C39.3522 15.2222 35.3833 13.5733 31.1567 13.5733ZM40.4633 36.1822C40.0678 37.2933 38.1655 38.3067 37.2544 38.4444C36.4322 38.5644 35.3967 38.6178 34.2589 38.2533C33.5655 38.0356 32.6811 37.7422 31.5478 37.2533C26.7744 35.1956 23.6589 30.3911 23.4233 30.0756C23.1833 29.7556 21.4811 27.4978 21.4811 25.1556C21.4811 22.8133 22.7078 21.6667 23.1478 21.1911C23.5833 20.7156 24.0989 20.5956 24.4144 20.5956C24.73 20.5956 25.05 20.6 25.3255 20.6133C25.6189 20.6267 26.01 20.5022 26.3967 21.4311C26.7922 22.3822 27.7433 24.72 27.8633 24.96C27.9789 25.1956 28.0589 25.4756 27.8989 25.7911C27.7433 26.1111 27.6633 26.3067 27.4233 26.5867C27.1878 26.8622 26.9255 27.2044 26.7122 27.4178C26.4722 27.6533 26.2278 27.9111 26.5033 28.3867C26.7789 28.8622 27.7344 30.4222 29.1478 31.68C30.9655 33.3022 32.4989 33.8044 32.9744 34.04C33.45 34.28 33.7255 34.24 34.0011 33.92C34.2811 33.6044 35.1922 32.5333 35.5078 32.0578C35.8278 31.5822 36.1433 31.6622 36.5789 31.8178C37.0144 31.9778 39.3522 33.1289 39.8278 33.3644C40.3033 33.6044 40.6189 33.7244 40.7389 33.92C40.8589 34.12 40.8589 35.0711 40.4633 36.1822Z" fill="#808285"/>
  </g>
  <defs>
    <clipPath id="clip0_4306_8550">
      <rect width="60" height="60" fill="white" transform="translate(0.183319)"/>
    </clipPath>
  </defs>
</svg>